<svg id="Layer_1" data-name="Layer 1" xmlns="http://www.w3.org/2000/svg" viewBox="0 0 430.3 137.28"><defs><style>.cls-1{fill:#1d1d1b;}</style></defs><title>Bliss Regular</title><path class="cls-1" d="M21.36,68h5.32l.72,4.17c3.53-2.88,7.42-5,11.74-5A9.14,9.14,0,0,1,48,72.77c4-3.6,8.35-5.69,12.53-5.69,5.61,0,10.44,3.46,10.44,12.1V102H64.63v-21c0-4.68-1-8.35-5.69-8.35-3.38,0-6.69,2-9.65,4.54,0,.57.08,1.22.08,1.8v23H43V81.12c0-4.75-1-8.42-5.69-8.42-3.38,0-6.7,2-9.65,4.54V102H21.36Z"/><path class="cls-1" d="M75.36,112.66a10.66,10.66,0,0,0,4.89,1.15c4.25,0,7.71-3,10.37-11.73L75.5,68h6.77L93.5,94.45h.15L102.5,68H109L96.17,104.17c-4.68,13-10,14.9-15.77,14.9a15.29,15.29,0,0,1-6.56-1.29Z"/><path class="cls-1" d="M115.68,54.55h9.72c4.61,0,7.85.72,10.44,2.16,4.46,2.45,7.13,6.92,7.13,13,0,5.47-2.38,10.73-8.28,13.39a24.51,24.51,0,0,1-9.87,1.73h-2.74V102h-6.4Zm9.57,25.06a13.91,13.91,0,0,0,6.48-1.29c3.1-1.59,4.54-4.54,4.54-8.57,0-3.75-1.44-6.77-4.25-8.43a12.84,12.84,0,0,0-6.7-1.51h-3.24v19.8Z"/><path class="cls-1" d="M147.93,84.94c0-10.08,6.41-17.86,16.2-17.86s16.13,7.78,16.13,17.86-6.41,17.79-16.2,17.79S147.93,95,147.93,84.94Zm25.78,0c0-7.34-3.6-12.6-9.58-12.6s-9.65,5.26-9.65,12.6,3.6,12.53,9.58,12.53S173.71,92.21,173.71,84.94Z"/><path class="cls-1" d="M187.46,68h5.33l.72,4.17c3.6-3.81,6.48-5,9.57-5a8,8,0,0,1,4,1l-2.23,5.62a6.86,6.86,0,0,0-3.25-.87c-2.44,0-4.68,1.3-7.84,4.4V102h-6.34Z"/><path class="cls-1" d="M214.32,94.37V73.06h-5.84V68h5.84V60.17l6.33-2V68h10.23l-1.73,5.11h-8.5V93.15c0,3,1.23,4.32,3.46,4.32a10.55,10.55,0,0,0,5.47-1.8l2.09,4.39a16.17,16.17,0,0,1-9,2.67C217.41,102.73,214.32,99.7,214.32,94.37Z"/><path class="cls-1" d="M240,73.06h-4.68V68H240V62.4c0-8.28,5-11.37,10.44-11.37a14.2,14.2,0,0,1,5.83,1.22l-1.3,5.11a10.75,10.75,0,0,0-3.88-.79c-3.24,0-4.76,2-4.76,5.62V68H255l-1.66,5.11h-7.06v29H240Z"/><path class="cls-1" d="M258.45,84.94c0-10.08,6.41-17.86,16.2-17.86s16.13,7.78,16.13,17.86-6.41,17.79-16.2,17.79S258.45,95,258.45,84.94Zm25.78,0c0-7.34-3.6-12.6-9.58-12.6S265,77.6,265,84.94s3.6,12.53,9.58,12.53S284.23,92.21,284.23,84.94Z"/><path class="cls-1" d="M298.34,51h6.33V93.51c0,2.59.8,3.38,2.6,3.38a7.5,7.5,0,0,0,2.08-.43l1.3,5a14.76,14.76,0,0,1-5.26,1c-4.75,0-7.05-2.59-7.05-7.13Z"/><path class="cls-1" d="M316.05,56.86a4.11,4.11,0,0,1,8.21,0,4.07,4.07,0,0,1-4.18,4.1A4,4,0,0,1,316.05,56.86ZM317,68h6.34V102H317Z"/><path class="cls-1" d="M331.1,84.94c0-10.08,6.4-17.86,16.2-17.86,9.65,0,16.13,7.78,16.13,17.86s-6.41,17.79-16.21,17.79S331.1,95,331.1,84.94Zm25.77,0c0-7.34-3.6-12.6-9.57-12.6s-9.65,5.26-9.65,12.6,3.6,12.53,9.57,12.53S356.87,92.21,356.87,84.94Z"/></svg>