<svg xmlns="http://www.w3.org/2000/svg" width="19" height="18.16" viewBox="0 0 19 18.16"><defs><style>.a{fill:#fff;fill-rule:evenodd;}</style></defs><title>linkedin</title><path class="a" d="M1076.31,1066.48v-12.25h-4.07v12.25h4.07Zm-2-13.93a2.12,2.12,0,1,0-2.28-2.12,2.12,2.12,0,0,0,2.28,2.12h0Z" transform="translate(-1071.99 -1048.32)"/><path class="a" d="M1078.56,1066.48h4.07v-6.84a2.79,2.79,0,0,1,.13-1,2.23,2.23,0,0,1,2.09-1.49c1.47,0,2.06,1.12,2.06,2.77v6.55H1091v-7c0-3.76-2-5.52-4.69-5.52a4.06,4.06,0,0,0-3.7,2.06h0v-1.78h-4.07c0.05,1.15,0,12.25,0,12.25h0Z" transform="translate(-1071.99 -1048.32)"/></svg>