<?xml version="1.0" encoding="UTF-8" standalone="no"?>
<!-- Created with Inkscape (http://www.inkscape.org/) -->

<svg
   width="170"
   height="170"
   viewBox="0 0 170 170"
   version="1.1"
   id="svg5"
   inkscape:version="1.1.2 (76b9e6a115, 2022-02-25)"
   sodipodi:docname="site-logo-small.svg"
   xmlns:inkscape="http://www.inkscape.org/namespaces/inkscape"
   xmlns:sodipodi="http://sodipodi.sourceforge.net/DTD/sodipodi-0.dtd"
   xmlns="http://www.w3.org/2000/svg"
   xmlns:svg="http://www.w3.org/2000/svg">
  <sodipodi:namedview
     id="namedview7"
     pagecolor="#ffffff"
     bordercolor="#666666"
     borderopacity="1.0"
     inkscape:pageshadow="2"
     inkscape:pageopacity="0.0"
     inkscape:pagecheckerboard="0"
     inkscape:document-units="px"
     showgrid="false"
     width="480px"
     inkscape:zoom="0.72954545"
     inkscape:cx="481.80686"
     inkscape:cy="14.392523"
     inkscape:window-width="1864"
     inkscape:window-height="1016"
     inkscape:window-x="1976"
     inkscape:window-y="27"
     inkscape:window-maximized="1"
     inkscape:current-layer="layer1"
     showguides="true"
     inkscape:guide-bbox="true"
     guidetolerance="20"
     objecttolerance="20"
     gridtolerance="10">
    <sodipodi:guide
       position="113.89509,14.172325"
       orientation="0,-1"
       id="guide32800" />
    <sodipodi:guide
       position="201.02397,145.1974"
       orientation="0,-1"
       id="guide46699" />
    <sodipodi:guide
       position="265.919,85.015577"
       orientation="0,-1"
       id="guide46877" />
  </sodipodi:namedview>
  <defs
     id="defs2">
    <style
       id="style868">.a{fill:#fff;fill-rule:evenodd;}</style>
    <style
       id="style44114">.cls-1{fill:url(#linear-gradient);}</style>
    <linearGradient
       id="linear-gradient"
       x1="259.19"
       y1="28.49"
       x2="259.19"
       y2="601.94"
       gradientUnits="userSpaceOnUse"
       gradientTransform="matrix(0.25193333,0,0,0.25193333,-7.9160613,18.204003)">
      <stop
         offset="0"
         stop-color="#fee800"
         id="stop44116" />
      <stop
         offset="1"
         stop-color="#e30613"
         id="stop44118" />
    </linearGradient>
  </defs>
  <g
     inkscape:label="Layer 1"
     inkscape:groupmode="layer"
     id="layer1">
    <path
       class="cls-1"
       d="m 97.4475,161.65232 a 12.0928,12.0928 0 0 1 -11.447853,8.20044 H 13.442845 A 12.0928,12.0928 0 0 1 1.3500459,157.75997 V 52.95569 A 12.0928,12.0928 0 0 1 9.6462105,41.472565 12.0928,12.0928 0 0 0 9.0012619,45.367454 V 150.17172 a 12.0928,12.0928 0 0 0 12.0927981,12.0928 h 72.556804 a 12.047451,12.047451 0 0 0 3.796636,-0.6122 z M 113.41503,37.474388 V 142.27866 a 12.0928,12.0928 0 0 1 -12.0928,12.09279 H 28.76543 A 12.0928,12.0928 0 0 1 16.672631,142.27866 V 37.474388 A 12.0928,12.0928 0 0 1 28.76543,25.381591 h 72.5568 a 12.0928,12.0928 0 0 1 12.0928,12.092797 z M 48.920098,51.990785 A 16.123732,16.123732 0 1 0 65.043835,35.86705 16.123732,16.123732 0 0 0 48.920098,51.990785 Z M 36.827298,91.4889 a 4.0309332,4.0309332 0 0 0 4.030935,4.030923 H 89.229429 A 4.0309332,4.0309332 0 0 0 93.260364,91.4889 20.154668,20.154668 0 0 0 73.105693,71.334225 H 56.981963 A 20.154668,20.154668 0 0 0 36.827298,91.4889 Z m 63.315882,45.97027 a 3.779,3.779 0 0 0 -3.647993,-3.77902 v 0 H 33.726 a 3.779015,3.779015 0 0 0 0,7.55803 h 62.769187 v 0 a 3.779,3.779 0 0 0 3.647993,-3.77901 z m 0,-13.91679 a 3.779,3.779 0 0 0 -3.647993,-3.77901 v 0 H 33.726 a 3.7790057,3.7790057 0 0 0 0,7.55801 h 62.769187 v 0 a 3.779,3.779 0 0 0 3.647993,-3.779 z m 0,-13.91681 a 3.779,3.779 0 0 0 -3.647993,-3.779 v 0 H 33.726 a 3.779,3.779 0 0 0 0,7.558 h 62.769187 v 0 a 3.779,3.779 0 0 0 3.647993,-3.779 z"
       id="path44125"
       style="fill:url(#linear-gradient);stroke-width:0.251933" />
  </g>
</svg>
