<?xml version="1.0" encoding="UTF-8" standalone="no"?>
<!-- Created with Inkscape (http://www.inkscape.org/) -->

<svg
   width="690"
   height="170"
   viewBox="0 0 690 170"
   version="1.1"
   id="svg5"
   inkscape:version="1.1.2 (76b9e6a115, 2022-02-25)"
   sodipodi:docname="site-logo.svg"
   xmlns:inkscape="http://www.inkscape.org/namespaces/inkscape"
   xmlns:sodipodi="http://sodipodi.sourceforge.net/DTD/sodipodi-0.dtd"
   xmlns="http://www.w3.org/2000/svg"
   xmlns:svg="http://www.w3.org/2000/svg">
  <sodipodi:namedview
     id="namedview7"
     pagecolor="#ffffff"
     bordercolor="#666666"
     borderopacity="1.0"
     inkscape:pageshadow="2"
     inkscape:pageopacity="0.0"
     inkscape:pagecheckerboard="0"
     inkscape:document-units="px"
     showgrid="false"
     width="480px"
     inkscape:zoom="0.72954545"
     inkscape:cx="481.80686"
     inkscape:cy="14.392523"
     inkscape:window-width="1864"
     inkscape:window-height="1016"
     inkscape:window-x="1976"
     inkscape:window-y="27"
     inkscape:window-maximized="1"
     inkscape:current-layer="layer1"
     showguides="true"
     inkscape:guide-bbox="true"
     guidetolerance="20"
     objecttolerance="20"
     gridtolerance="10">
    <sodipodi:guide
       position="113.89509,14.172325"
       orientation="0,-1"
       id="guide32800" />
    <sodipodi:guide
       position="201.02397,145.1974"
       orientation="0,-1"
       id="guide46699" />
    <sodipodi:guide
       position="265.919,85.015577"
       orientation="0,-1"
       id="guide46877" />
  </sodipodi:namedview>
  <defs
     id="defs2">
    <style
       id="style868">.a{fill:#fff;fill-rule:evenodd;}</style>
    <style
       id="style44114">.cls-1{fill:url(#linear-gradient);}</style>
    <linearGradient
       id="linear-gradient"
       x1="259.19"
       y1="28.49"
       x2="259.19"
       y2="601.94"
       gradientUnits="userSpaceOnUse"
       gradientTransform="matrix(0.25193333,0,0,0.25193333,-7.9160613,18.204003)">
      <stop
         offset="0"
         stop-color="#fee800"
         id="stop44116" />
      <stop
         offset="1"
         stop-color="#e30613"
         id="stop44118" />
    </linearGradient>
  </defs>
  <g
     inkscape:label="Layer 1"
     inkscape:groupmode="layer"
     id="layer1">
    <text
       xml:space="preserve"
       style="font-style:normal;font-weight:normal;font-size:96px;line-height:1.25;font-family:sans-serif;letter-spacing:2.4px;fill:#000000;fill-opacity:1;stroke:none"
       x="152.3912"
       y="-102.09655"
       id="text6281"><tspan
         sodipodi:role="line"
         id="tspan6279"
         x="152.3912"
         y="-102.09655"
         style="font-style:normal;font-variant:normal;font-weight:normal;font-stretch:normal;font-size:96px;font-family:'Open Sans';-inkscape-font-specification:'Open Sans';fill:#33373c;fill-opacity:1">myPortfolio</tspan></text>
    <g
       aria-label="myPortfolio"
       id="text6281-8"
       style="font-size:96px;line-height:1.25;letter-spacing:2.4px">
      <path
         d="m 206.06302,61.833092 q 8.48437,0 12.79687,4.453125 4.3125,4.40625 4.3125,14.203125 v 33.656248 h -7.6875 V 80.864342 q 0,-6.234375 -2.71875,-9.328125 -2.67187,-3.140625 -7.96875,-3.140625 -7.45312,0 -10.82812,4.3125 -3.375,4.3125 -3.375,12.703125 v 28.734373 h -7.73438 V 80.864342 q 0,-4.171875 -1.21875,-6.9375 -1.17187,-2.765625 -3.5625,-4.125 -2.34375,-1.40625 -5.95312,-1.40625 -5.10938,0 -8.20313,2.109375 -3.09375,2.109375 -4.5,6.28125 -1.35937,4.125 -1.35937,10.171875 v 27.187498 h -7.78125 V 62.770592 h 6.28125 l 1.17187,7.265625 h 0.42188 q 1.54687,-2.671875 3.89062,-4.5 2.34375,-1.828125 5.25,-2.765625 2.90625,-0.9375 6.1875,-0.9375 5.85938,0 9.79688,2.203125 3.98437,2.15625 5.76562,6.609375 h 0.42188 q 2.53125,-4.453125 6.9375,-6.609375 4.40625,-2.203125 9.65625,-2.203125 z"
         style="font-family:'Open Sans';-inkscape-font-specification:'Open Sans';fill:#33373c"
         id="path27177" />
      <path
         d="m 233.4474,62.770592 h 8.34375 l 11.34375,29.8125 q 0.98437,2.625 1.82812,5.0625 0.84375,2.390628 1.5,4.593748 0.65625,2.20313 1.03125,4.26563 h 0.32813 q 0.65625,-2.34375 1.875,-6.14063 1.21875,-3.843748 2.625,-7.828123 l 10.73437,-29.765625 h 8.39063 l -22.35938,58.921878 q -1.78125,4.73437 -4.17187,8.25 -2.34375,3.51562 -5.71875,5.39062 -3.375,1.92188 -8.15625,1.92188 -2.20313,0 -3.89063,-0.28125 -1.6875,-0.23438 -2.90625,-0.5625 v -6.23438 q 1.03125,0.23438 2.48438,0.42188 1.5,0.1875 3.09375,0.1875 2.90625,0 5.01562,-1.125 2.15625,-1.07813 3.70313,-3.1875 1.54687,-2.10938 2.67187,-5.01563 l 2.8125,-7.21875 z"
         style="font-family:'Open Sans';-inkscape-font-specification:'Open Sans';fill:#33373c"
         id="path27179" />
      <path
         d="m 311.12865,45.614342 q 13.26562,0 19.35937,5.203125 6.14063,5.15625 6.14063,14.8125 0,4.359375 -1.45313,8.296875 -1.40625,3.890625 -4.59375,6.890625 -3.1875,2.953125 -8.39062,4.6875 -5.15625,1.6875 -12.65625,1.6875 h -8.34375 V 114.14559 H 293.2224 V 45.614342 Z m -0.75,6.796875 h -9.1875 v 27.9375 h 7.45312 q 6.5625,0 10.92188,-1.40625 4.40625,-1.40625 6.60937,-4.546875 2.20313,-3.1875 2.20313,-8.4375 0,-6.84375 -4.35938,-10.171875 -4.35937,-3.375 -13.64062,-3.375 z"
         style="font-family:'Open Sans';-inkscape-font-specification:'Open Sans';fill:#33373c"
         id="path27181" />
      <path
         d="m 396.49739,88.364342 q 0,6.328125 -1.64062,11.296875 -1.64063,4.968753 -4.73438,8.390623 -3.09375,3.42188 -7.5,5.25 -4.35937,1.78125 -9.89062,1.78125 -5.15625,0 -9.46875,-1.78125 -4.26563,-1.82812 -7.40625,-5.25 -3.09375,-3.42187 -4.82813,-8.390623 -1.6875,-4.96875 -1.6875,-11.296875 0,-8.4375 2.85938,-14.34375 2.85937,-5.953125 8.15625,-9.046875 5.34375,-3.140625 12.70312,-3.140625 7.03125,0 12.28125,3.140625 5.29688,3.140625 8.20313,9.09375 2.95312,5.90625 2.95312,14.296875 z m -39.09375,0 q 0,6.1875 1.64063,10.734375 1.64062,4.546873 5.0625,7.031253 3.42187,2.48437 8.8125,2.48437 5.34375,0 8.76562,-2.48437 3.46875,-2.48438 5.10938,-7.031253 1.64062,-4.546875 1.64062,-10.734375 0,-6.140625 -1.64062,-10.59375 -1.64063,-4.5 -5.0625,-6.9375 -3.42188,-2.4375 -8.85938,-2.4375 -8.01562,0 -11.76562,5.296875 -3.70313,5.296875 -3.70313,14.671875 z"
         style="font-family:'Open Sans';-inkscape-font-specification:'Open Sans';fill:#33373c"
         id="path27183" />
      <path
         d="m 435.69427,61.833092 q 1.54688,0 3.23438,0.1875 1.6875,0.140625 3,0.421875 l -0.98438,7.21875 q -1.26562,-0.328125 -2.8125,-0.515625 -1.54687,-0.1875 -2.90625,-0.1875 -3.09375,0 -5.85937,1.265625 -2.71875,1.21875 -4.78125,3.5625 -2.0625,2.296875 -3.23438,5.578125 -1.17187,3.234375 -1.17187,7.21875 v 27.562498 h -7.82813 V 62.770592 h 6.46875 l 0.84375,9.46875 h 0.32813 q 1.59375,-2.859375 3.84375,-5.203125 2.25,-2.390625 5.20312,-3.796875 3,-1.40625 6.65625,-1.40625 z"
         style="font-family:'Open Sans';-inkscape-font-specification:'Open Sans';fill:#33373c"
         id="path27185" />
      <path
         d="m 470.57864,108.70809 q 1.92188,0 3.9375,-0.32812 2.01563,-0.32813 3.28125,-0.79688 v 6.04688 q -1.35937,0.60937 -3.79687,1.03125 -2.39063,0.42187 -4.6875,0.42187 -4.07813,0 -7.40625,-1.40625 -3.32813,-1.45312 -5.34375,-4.875 -1.96875,-3.42187 -1.96875,-9.468748 v -30.46875 h -7.3125 v -3.796875 l 7.35937,-3.046875 3.09375,-11.15625 h 4.6875 v 11.90625 h 15.04688 v 6.09375 h -15.04688 v 30.234375 q 0,4.828123 2.20313,7.218753 2.25,2.39062 5.95312,2.39062 z"
         style="font-family:'Open Sans';-inkscape-font-specification:'Open Sans';fill:#33373c"
         id="path27187" />
      <path
         d="m 513.47864,68.864342 h -12.79688 v 45.281248 h -7.78125 V 68.864342 h -9.09375 v -3.75 l 9.09375,-2.578125 v -3.421875 q 0,-6.46875 1.92188,-10.5 1.92187,-4.078125 5.57812,-6 3.65625,-1.921875 8.90625,-1.921875 2.95313,0 5.39063,0.515625 2.48437,0.515625 4.35937,1.171875 l -2.01562,6.140625 q -1.59375,-0.515625 -3.60938,-0.9375 -1.96875,-0.46875 -4.03125,-0.46875 -4.45312,0 -6.60937,2.90625 -2.10938,2.859375 -2.10938,9 v 3.75 h 12.79688 z"
         style="font-family:'Open Sans';-inkscape-font-specification:'Open Sans';fill:#33373c"
         id="path27189" />
      <path
         d="m 569.59738,88.364342 q 0,6.328125 -1.64062,11.296875 -1.64063,4.968753 -4.73438,8.390623 -3.09375,3.42188 -7.5,5.25 -4.35937,1.78125 -9.89062,1.78125 -5.15625,0 -9.46875,-1.78125 -4.26563,-1.82812 -7.40625,-5.25 -3.09375,-3.42187 -4.82813,-8.390623 -1.6875,-4.96875 -1.6875,-11.296875 0,-8.4375 2.85938,-14.34375 2.85937,-5.953125 8.15625,-9.046875 5.34375,-3.140625 12.70312,-3.140625 7.03125,0 12.28125,3.140625 5.29688,3.140625 8.20313,9.09375 2.95312,5.90625 2.95312,14.296875 z m -39.09375,0 q 0,6.1875 1.64063,10.734375 1.64062,4.546873 5.0625,7.031253 3.42187,2.48437 8.8125,2.48437 5.34375,0 8.76562,-2.48437 3.46875,-2.48438 5.10938,-7.031253 1.64062,-4.546875 1.64062,-10.734375 0,-6.140625 -1.64062,-10.59375 -1.64063,-4.5 -5.0625,-6.9375 -3.42188,-2.4375 -8.85938,-2.4375 -8.01562,0 -11.76562,5.296875 -3.70313,5.296875 -3.70313,14.671875 z"
         style="font-family:'Open Sans';-inkscape-font-specification:'Open Sans';fill:#33373c"
         id="path27191" />
      <path
         d="m 593.27866,114.14559 h -7.82813 V 41.208092 h 7.82813 z"
         style="font-family:'Open Sans';-inkscape-font-specification:'Open Sans';fill:#33373c"
         id="path27193" />
      <path
         d="M 619.86615,62.770592 V 114.14559 H 612.0849 V 62.770592 Z m -3.79688,-19.21875 q 1.92188,0 3.28125,1.265625 1.40625,1.21875 1.40625,3.84375 0,2.578125 -1.40625,3.84375 -1.35937,1.265625 -3.28125,1.265625 -2.01562,0 -3.375,-1.265625 -1.3125,-1.265625 -1.3125,-3.84375 0,-2.625 1.3125,-3.84375 1.35938,-1.265625 3.375,-1.265625 z"
         style="font-family:'Open Sans';-inkscape-font-specification:'Open Sans';fill:#33373c"
         id="path27195" />
      <path
         d="m 683.01614,88.364342 q 0,6.328125 -1.64062,11.296875 -1.64063,4.968753 -4.73438,8.390623 -3.09375,3.42188 -7.5,5.25 -4.35937,1.78125 -9.89062,1.78125 -5.15625,0 -9.46875,-1.78125 -4.26563,-1.82812 -7.40625,-5.25 -3.09375,-3.42187 -4.82813,-8.390623 -1.6875,-4.96875 -1.6875,-11.296875 0,-8.4375 2.85938,-14.34375 2.85937,-5.953125 8.15625,-9.046875 5.34375,-3.140625 12.70312,-3.140625 7.03125,0 12.28125,3.140625 5.29688,3.140625 8.20313,9.09375 2.95312,5.90625 2.95312,14.296875 z m -39.09375,0 q 0,6.1875 1.64063,10.734375 1.64062,4.546873 5.0625,7.031253 3.42187,2.48437 8.8125,2.48437 5.34375,0 8.76562,-2.48437 3.46875,-2.48438 5.10938,-7.031253 1.64062,-4.546875 1.64062,-10.734375 0,-6.140625 -1.64062,-10.59375 -1.64063,-4.5 -5.0625,-6.9375 -3.42188,-2.4375 -8.85938,-2.4375 -8.01562,0 -11.76562,5.296875 -3.70313,5.296875 -3.70313,14.671875 z"
         style="font-family:'Open Sans';-inkscape-font-specification:'Open Sans';fill:#33373c"
         id="path27197" />
    </g>
    <path
       class="cls-1"
       d="m 97.4475,161.65232 a 12.0928,12.0928 0 0 1 -11.447853,8.20044 H 13.442845 A 12.0928,12.0928 0 0 1 1.3500459,157.75997 V 52.95569 A 12.0928,12.0928 0 0 1 9.6462105,41.472565 12.0928,12.0928 0 0 0 9.0012619,45.367454 V 150.17172 a 12.0928,12.0928 0 0 0 12.0927981,12.0928 h 72.556804 a 12.047451,12.047451 0 0 0 3.796636,-0.6122 z M 113.41503,37.474388 V 142.27866 a 12.0928,12.0928 0 0 1 -12.0928,12.09279 H 28.76543 A 12.0928,12.0928 0 0 1 16.672631,142.27866 V 37.474388 A 12.0928,12.0928 0 0 1 28.76543,25.381591 h 72.5568 a 12.0928,12.0928 0 0 1 12.0928,12.092797 z M 48.920098,51.990785 A 16.123732,16.123732 0 1 0 65.043835,35.86705 16.123732,16.123732 0 0 0 48.920098,51.990785 Z M 36.827298,91.4889 a 4.0309332,4.0309332 0 0 0 4.030935,4.030923 H 89.229429 A 4.0309332,4.0309332 0 0 0 93.260364,91.4889 20.154668,20.154668 0 0 0 73.105693,71.334225 H 56.981963 A 20.154668,20.154668 0 0 0 36.827298,91.4889 Z m 63.315882,45.97027 a 3.779,3.779 0 0 0 -3.647993,-3.77902 v 0 H 33.726 a 3.779015,3.779015 0 0 0 0,7.55803 h 62.769187 v 0 a 3.779,3.779 0 0 0 3.647993,-3.77901 z m 0,-13.91679 a 3.779,3.779 0 0 0 -3.647993,-3.77901 v 0 H 33.726 a 3.7790057,3.7790057 0 0 0 0,7.55801 h 62.769187 v 0 a 3.779,3.779 0 0 0 3.647993,-3.779 z m 0,-13.91681 a 3.779,3.779 0 0 0 -3.647993,-3.779 v 0 H 33.726 a 3.779,3.779 0 0 0 0,7.558 h 62.769187 v 0 a 3.779,3.779 0 0 0 3.647993,-3.779 z"
       id="path44125"
       style="fill:url(#linear-gradient);stroke-width:0.251933" />
  </g>
</svg>
