<svg xmlns="http://www.w3.org/2000/svg" width="30.01" height="24.36" viewBox="0 0 30.01 24.36"><defs><style>.a{fill:#575757;fill-rule:evenodd;}</style></defs><title>twitter-dark</title><path class="a" d="M967.28,899.72a6.33,6.33,0,0,1,4.87,1.93,10,10,0,0,0,3.15-1.06l0.77-.42a6.16,6.16,0,0,1-2,2.89,2.93,2.93,0,0,1-.68.48v0a11.57,11.57,0,0,0,3.49-.94v0a10,10,0,0,1-2.09,2.4l-1,.76a17.62,17.62,0,0,1-.29,4c-1.54,6.91-5.61,11.6-12.06,13.61a18.44,18.44,0,0,1-8.71.36,22.39,22.39,0,0,1-3.62-1.18,14.45,14.45,0,0,1-1.74-.9l-0.54-.33a10.11,10.11,0,0,0,2,.08c0.61-.1,1.2-0.07,1.76-0.2a12.61,12.61,0,0,0,3.7-1.33,6.88,6.88,0,0,0,1.67-1.09,5.24,5.24,0,0,1-1.83-.33,6.18,6.18,0,0,1-3.91-3.94c0.6,0.07,2.34.22,2.75-.12a4.51,4.51,0,0,1-2-.81,5.93,5.93,0,0,1-2.9-5.27l0.63,0.3a6.76,6.76,0,0,0,1.29.36,1.85,1.85,0,0,0,.84.07h0c-0.31-.36-0.81-0.6-1.13-1a6.29,6.29,0,0,1-1.38-5.59,7.14,7.14,0,0,1,.66-1.6l0,0a3.8,3.8,0,0,0,.56.64,11.31,11.31,0,0,0,1.83,1.75,18.13,18.13,0,0,0,7.53,3.64,11.77,11.77,0,0,0,2.76.36,5.72,5.72,0,0,1,0-2.89,6.07,6.07,0,0,1,3.49-4.13,7.43,7.43,0,0,1,1.37-.42l0.75-.09" transform="translate(-946.87 -899.72)"/></svg>