<svg xmlns="http://www.w3.org/2000/svg" width="18.07" height="12.71" viewBox="0 0 18.07 12.71"><defs><style>.a{fill:#fff;}</style></defs><title>youtube</title><path class="a" d="M872.84,870.16a3.91,3.91,0,0,0-.72-1.79,2.59,2.59,0,0,0-1.81-.77c-2.53-.18-6.32-0.18-6.32-0.18h0s-3.79,0-6.32.18a2.59,2.59,0,0,0-1.81.77,3.91,3.91,0,0,0-.72,1.79,27.32,27.32,0,0,0-.18,2.92v1.37a27.32,27.32,0,0,0,.18,2.92,3.91,3.91,0,0,0,.72,1.79,3.06,3.06,0,0,0,2,.77c1.45,0.14,6.14.18,6.14,0.18s3.8,0,6.33-.19a2.58,2.58,0,0,0,1.81-.77,3.91,3.91,0,0,0,.72-1.79,27.36,27.36,0,0,0,.18-2.92v-1.37A27.36,27.36,0,0,0,872.84,870.16Zm-10.72,6V871l4.88,2.55Z" transform="translate(-854.95 -867.42)"/></svg>